<svg xmlns="http://www.w3.org/2000/svg" xmlns:xlink="http://www.w3.org/1999/xlink" width="603px" height="303px" version="1.1"><defs/><g transform="translate(0.5,0.5)"><rect x="1" y="1" width="100" height="40" fill="#ffffff" stroke="#000000" pointer-events="none"/><path d="M 51 41 L 51 301" fill="none" stroke="#000000" stroke-miterlimit="10" stroke-dasharray="3 3" pointer-events="none"/><g fill="#000000" font-family="Helvetica" text-anchor="middle" font-size="12px"><text x="51" y="25">User</text></g><rect x="241" y="1" width="100" height="40" fill="#ffffff" stroke="#000000" pointer-events="none"/><path d="M 291 41 L 291 301" fill="none" stroke="#000000" stroke-miterlimit="10" stroke-dasharray="3 3" pointer-events="none"/><g fill="#000000" font-family="Helvetica" text-anchor="middle" font-size="12px"><text x="291" y="25">Client</text></g><rect x="501" y="1" width="100" height="40" fill="#ffffff" stroke="#000000" pointer-events="none"/><path d="M 551 41 L 551 301" fill="none" stroke="#000000" stroke-miterlimit="10" stroke-dasharray="3 3" pointer-events="none"/><g fill="#000000" font-family="Helvetica" text-anchor="middle" font-size="12px"><text x="551" y="25">Resource Server</text></g><path d="M 61 71 L 285 71" fill="none" stroke="#000000" stroke-miterlimit="10" pointer-events="none"/><path d="M 290 71 L 283 74 L 285 71 L 283 67 Z" fill="#000000" stroke="#000000" stroke-miterlimit="10" pointer-events="none"/><g fill="#000000" font-family="Helvetica" text-anchor="middle" font-size="11px"><rect fill="#ffffff" stroke="none" x="142" y="65" width="69" height="14" stroke-width="0"/><text x="176" y="74">Access Client</text></g><path d="M 291 101 L 57 101" fill="none" stroke="#000000" stroke-miterlimit="10" pointer-events="none"/><path d="M 52 101 L 59 97 L 57 101 L 59 104 Z" fill="#000000" stroke="#000000" stroke-miterlimit="10" pointer-events="none"/><g fill="#000000" font-family="Helvetica" text-anchor="middle" font-size="11px"><rect fill="#ffffff" stroke="none" x="130" y="88" width="84" height="27" stroke-width="0"/><text x="171" y="98">Login via </text><text x="171" y="111">Resource Server</text></g><path d="M 51 151 L 545 151" fill="none" stroke="#000000" stroke-miterlimit="10" pointer-events="none"/><path d="M 550 151 L 543 155 L 545 151 L 543 148 Z" fill="#000000" stroke="#000000" stroke-miterlimit="10" pointer-events="none"/><g fill="#000000" font-family="Helvetica" text-anchor="middle" font-size="11px"><rect fill="#ffffff" stroke="none" x="158" y="145" width="287" height="14" stroke-width="0"/><text x="301" y="148">Login via  the Resource Servers Authentication Mechanism</text></g><path d="M 551 181 L 57 181" fill="none" stroke="#000000" stroke-miterlimit="10" pointer-events="none"/><path d="M 52 181 L 59 178 L 57 181 L 59 185 Z" fill="#000000" stroke="#000000" stroke-miterlimit="10" pointer-events="none"/><g fill="#000000" font-family="Helvetica" text-anchor="middle" font-size="11px"><rect fill="#ffffff" stroke="none" x="187" y="169" width="230" height="27" stroke-width="0"/><text x="301" y="178">Redirect User to the Clients Redirect URI</text><text x="301" y="191">with authentication status from resource server</text></g><path d="M 51 221 L 285 221" fill="none" stroke="#000000" stroke-miterlimit="10" pointer-events="none"/><path d="M 290 221 L 283 224 L 285 221 L 283 217 Z" fill="#000000" stroke="#000000" stroke-miterlimit="10" pointer-events="none"/><g fill="#000000" font-family="Helvetica" text-anchor="middle" font-size="11px"><rect fill="#ffffff" stroke="none" x="122" y="215" width="99" height="14" stroke-width="0"/><text x="171" y="224">Access redirect URI </text></g><path d="M 291 231 L 545 231" fill="none" stroke="#000000" stroke-miterlimit="10" pointer-events="none"/><path d="M 550 231 L 543 235 L 545 231 L 543 228 Z" fill="#000000" stroke="#000000" stroke-miterlimit="10" pointer-events="none"/><g fill="#000000" font-family="Helvetica" text-anchor="middle" font-size="11px"><rect fill="#ffffff" stroke="none" x="316" y="219" width="212" height="27" stroke-width="0"/><text x="421" y="228">Access Resource Server </text><text x="421" y="241">with Client ID, Secret, authentication status</text></g><path d="M 551 271 L 297 271" fill="none" stroke="#000000" stroke-miterlimit="10" pointer-events="none"/><path d="M 292 271 L 299 268 L 297 271 L 299 275 Z" fill="#000000" stroke="#000000" stroke-miterlimit="10" pointer-events="none"/><g fill="#000000" font-family="Helvetica" text-anchor="middle" font-size="11px"><rect fill="#ffffff" stroke="none" x="369" y="265" width="106" height="14" stroke-width="0"/><text x="421" y="275">Return Access Token</text></g><path d="M 291 281 L 67 281" fill="none" stroke="#000000" stroke-miterlimit="10" pointer-events="none"/><path d="M 62 281 L 69 277 L 67 281 L 69 284 Z" fill="#000000" stroke="#000000" stroke-miterlimit="10" pointer-events="none"/><g fill="#000000" font-family="Helvetica" text-anchor="middle" font-size="11px"><rect fill="#ffffff" stroke="none" x="79" y="268" width="195" height="27" stroke-width="0"/><text x="176" y="278">User Logged In</text><text x="176" y="291">Subsequent calls can use access token</text></g></g></svg>