<svg xmlns="http://www.w3.org/2000/svg" class="canvas" height="300" width="480"><g transform="translate(80,20)" class="graph"><g class="dataset"><circle r="5" cy="76.79999999999998" cx="159.3548387096774" class="point"></circle><circle r="5" cy="99.65714285714284" cx="110.32258064516128" class="point"></circle><circle r="5" cy="85.94285714285715" cx="232.90322580645162" class="point"></circle><circle r="5" cy="85.2571428571429" cx="134.83870967741936" class="point"></circle><circle r="5" cy="74.05714285714288" cx="183.8709677419355" class="point"></circle><circle r="5" cy="100.57142857142858" cx="257.41935483870964" class="point"></circle><circle r="5" cy="145.60000000000002" cx="61.29032258064516" class="point"></circle><circle r="5" cy="214.85714285714286" cx="12.258064516129032" class="point"></circle><circle r="5" cy="77.02857142857141" cx="208.38709677419354" class="point"></circle><circle r="5" cy="119.77142857142857" cx="85.80645161290322" class="point"></circle><circle r="5" cy="177.37142857142857" cx="36.774193548387096" class="point"></circle></g><g transform="translate(0,240)" class="x axis"><g transform="translate(12.258064516129032,0)" style="opacity: 1;" class="tick major"><line x2="0" y2="6"></line><text style="text-anchor: middle;" dy=".71em" x="0" y="9">4</text></g><g transform="translate(61.29032258064516,0)" style="opacity: 1;" class="tick major"><line x2="0" y2="6"></line><text style="text-anchor: middle;" dy=".71em" x="0" y="9">6</text></g><g transform="translate(110.32258064516128,0)" style="opacity: 1;" class="tick major"><line x2="0" y2="6"></line><text style="text-anchor: middle;" dy=".71em" x="0" y="9">8</text></g><g transform="translate(159.3548387096774,0)" style="opacity: 1;" class="tick major"><line x2="0" y2="6"></line><text style="text-anchor: middle;" dy=".71em" x="0" y="9">10</text></g><g transform="translate(208.38709677419354,0)" style="opacity: 1;" class="tick major"><line x2="0" y2="6"></line><text style="text-anchor: middle;" dy=".71em" x="0" y="9">12</text></g><g transform="translate(257.41935483870964,0)" style="opacity: 1;" class="tick major"><line x2="0" y2="6"></line><text style="text-anchor: middle;" dy=".71em" x="0" y="9">14</text></g><g transform="translate(306.4516129032258,0)" style="opacity: 1;" class="tick major"><line x2="0" y2="6"></line><text style="text-anchor: middle;" dy=".71em" x="0" y="9">16</text></g><g transform="translate(355.4838709677419,0)" style="opacity: 1;" class="tick major"><line x2="0" y2="6"></line><text style="text-anchor: middle;" dy=".71em" x="0" y="9">18</text></g><path d="M0,6V0H380V6" class="domain"></path><text class="label" text-anchor="middle" x="190" y="40">x2</text></g><g class="y axis"><g transform="translate(0,240)" style="opacity: 1;" class="tick major"><line y2="0" x2="-6"></line><text style="text-anchor: end;" dy=".32em" y="0" x="-9">2</text></g><g transform="translate(0,194.28571428571428)" style="opacity: 1;" class="tick major"><line y2="0" x2="-6"></line><text style="text-anchor: end;" dy=".32em" y="0" x="-9">4</text></g><g transform="translate(0,148.57142857142858)" style="opacity: 1;" class="tick major"><line y2="0" x2="-6"></line><text style="text-anchor: end;" dy=".32em" y="0" x="-9">6</text></g><g transform="translate(0,102.85714285714286)" style="opacity: 1;" class="tick major"><line y2="0" x2="-6"></line><text style="text-anchor: end;" dy=".32em" y="0" x="-9">8</text></g><g transform="translate(0,57.14285714285717)" style="opacity: 1;" class="tick major"><line y2="0" x2="-6"></line><text style="text-anchor: end;" dy=".32em" y="0" x="-9">10</text></g><g transform="translate(0,11.428571428571445)" style="opacity: 1;" class="tick major"><line y2="0" x2="-6"></line><text style="text-anchor: end;" dy=".32em" y="0" x="-9">12</text></g><path d="M-6,0H0V240H-6" class="domain"></path><text class="label" text-anchor="middle" x="-120" dy=".71em" y="-74" transform="rotate(-90)">y2</text></g><path d="M0,177.12207792207784L12.258064516129032,171.4077922077921L24.516129032258064,165.6935064935064L36.774193548387096,159.97922077922073L49.03225806451613,154.264935064935L61.29032258064516,148.55064935064928L73.54838709677419,142.8363636363636L85.80645161290322,137.12207792207786L98.06451612903226,131.40779220779217L110.32258064516128,125.69350649350648L122.58064516129032,119.97922077922077L134.83870967741936,114.26493506493505L147.09677419354838,108.55064935064934L159.3548387096774,102.83636363636367L171.61290322580643,97.12207792207795L183.8709677419355,91.40779220779226L196.1290322580645,85.69350649350653L208.38709677419354,79.97922077922081L220.64516129032256,74.26493506493514L232.90322580645162,68.55064935064942L245.16129032258064,62.8363636363637L257.41935483870964,57.122077922078006L269.6774193548387,51.40779220779231L281.93548387096774,45.69350649350662L294.19354838709677,39.979220779220896L306.4516129032258,34.26493506493517L318.7096774193548,28.55064935064945L330.9677419354839,22.836363636363757L343.22580645161287,17.122077922078063L355.4838709677419,11.407792207792369L367.741935483871,5.693506493506646L380,-0.020779220779076013" class="line bestfit"><title>Fit: y = 0.5x + 3.0009 ; r2 = 0.6662</title></path></g></svg>