<svg xmlns="http://www.w3.org/2000/svg" height="500" width="960"><g transform="translate(40,20)"><g transform="translate(0,450)" class="x axis"><g transform="translate(52.94117647058823,0)" style="opacity: 1;" class="tick"><line x2="0" y2="6"></line><text x="0" y="9" style="text-anchor: middle;" dy=".71em">4</text></g><g transform="translate(158.82352941176472,0)" style="opacity: 1;" class="tick"><line x2="0" y2="6"></line><text x="0" y="9" style="text-anchor: middle;" dy=".71em">6</text></g><g transform="translate(264.70588235294116,0)" style="opacity: 1;" class="tick"><line x2="0" y2="6"></line><text x="0" y="9" style="text-anchor: middle;" dy=".71em">8</text></g><g transform="translate(370.5882352941176,0)" style="opacity: 1;" class="tick"><line x2="0" y2="6"></line><text x="0" y="9" style="text-anchor: middle;" dy=".71em">10</text></g><g transform="translate(476.47058823529414,0)" style="opacity: 1;" class="tick"><line x2="0" y2="6"></line><text x="0" y="9" style="text-anchor: middle;" dy=".71em">12</text></g><g transform="translate(582.3529411764706,0)" style="opacity: 1;" class="tick"><line x2="0" y2="6"></line><text x="0" y="9" style="text-anchor: middle;" dy=".71em">14</text></g><g transform="translate(688.235294117647,0)" style="opacity: 1;" class="tick"><line x2="0" y2="6"></line><text x="0" y="9" style="text-anchor: middle;" dy=".71em">16</text></g><g transform="translate(794.1176470588235,0)" style="opacity: 1;" class="tick"><line x2="0" y2="6"></line><text x="0" y="9" style="text-anchor: middle;" dy=".71em">18</text></g><g transform="translate(900,0)" style="opacity: 1;" class="tick"><line x2="0" y2="6"></line><text x="0" y="9" style="text-anchor: middle;" dy=".71em">20</text></g><path d="M0,6V0H900V6" class="domain"></path><text style="text-anchor: end;" y="-6" x="900" class="label">x</text></g><g class="y axis"><g transform="translate(0,415.2061855670103)" style="opacity: 1;" class="tick"><line y2="0" x2="-6"></line><text y="0" x="-9" style="text-anchor: end;" dy=".32em">3</text></g><g transform="translate(0,376.54639175257734)" style="opacity: 1;" class="tick"><line y2="0" x2="-6"></line><text y="0" x="-9" style="text-anchor: end;" dy=".32em">4</text></g><g transform="translate(0,337.88659793814435)" style="opacity: 1;" class="tick"><line y2="0" x2="-6"></line><text y="0" x="-9" style="text-anchor: end;" dy=".32em">5</text></g><g transform="translate(0,299.22680412371136)" style="opacity: 1;" class="tick"><line y2="0" x2="-6"></line><text y="0" x="-9" style="text-anchor: end;" dy=".32em">6</text></g><g transform="translate(0,260.5670103092783)" style="opacity: 1;" class="tick"><line y2="0" x2="-6"></line><text y="0" x="-9" style="text-anchor: end;" dy=".32em">7</text></g><g transform="translate(0,221.9072164948454)" style="opacity: 1;" class="tick"><line y2="0" x2="-6"></line><text y="0" x="-9" style="text-anchor: end;" dy=".32em">8</text></g><g transform="translate(0,183.24742268041237)" style="opacity: 1;" class="tick"><line y2="0" x2="-6"></line><text y="0" x="-9" style="text-anchor: end;" dy=".32em">9</text></g><g transform="translate(0,144.58762886597935)" style="opacity: 1;" class="tick"><line y2="0" x2="-6"></line><text y="0" x="-9" style="text-anchor: end;" dy=".32em">10</text></g><g transform="translate(0,105.92783505154641)" style="opacity: 1;" class="tick"><line y2="0" x2="-6"></line><text y="0" x="-9" style="text-anchor: end;" dy=".32em">11</text></g><g transform="translate(0,67.26804123711341)" style="opacity: 1;" class="tick"><line y2="0" x2="-6"></line><text y="0" x="-9" style="text-anchor: end;" dy=".32em">12</text></g><g transform="translate(0,28.60824742268041)" style="opacity: 1;" class="tick"><line y2="0" x2="-6"></line><text y="0" x="-9" style="text-anchor: end;" dy=".32em">13</text></g><path d="M-6,0H0V450H-6" class="domain"></path><text style="text-anchor: end;" dy=".71em" y="6" transform="rotate(-90)" class="label">y</text></g><circle style="fill: rgb(31, 119, 180);" opacity="1" cy="220.36082474226805" cx="370.5882352941176" r="3.5" class="dot"></circle><circle style="fill: rgb(31, 119, 180);" opacity="1" cy="262.5" cx="264.70588235294116" r="3.5" class="dot"></circle><circle style="fill: rgb(31, 119, 180);" opacity="1" cy="238.1443298969072" cx="529.4117647058823" r="3.5" class="dot"></circle><circle style="fill: rgb(31, 119, 180);" opacity="1" cy="190.5927835051546" cx="317.64705882352945" r="3.5" class="dot"></circle><circle style="fill: rgb(31, 119, 180);" opacity="1" cy="209.14948453608247" cx="423.52941176470586" r="3.5" class="dot"></circle><circle style="fill: rgb(31, 119, 180);" opacity="1" cy="146.1340206185567" cx="582.3529411764706" r="3.5" class="dot"></circle><circle style="fill: rgb(31, 119, 180);" opacity="1" cy="251.28865979381445" cx="158.82352941176472" r="3.5" class="dot"></circle><circle style="fill: rgb(31, 119, 180);" opacity="1" cy="366.49484536082474" cx="52.94117647058823" r="3.5" class="dot"></circle><circle style="fill: rgb(31, 119, 180);" opacity="1" cy="112.11340206185567" cx="476.47058823529414" r="3.5" class="dot"></circle><circle style="fill: rgb(31, 119, 180);" opacity="1" cy="344.8453608247422" cx="211.76470588235293" r="3.5" class="dot"></circle><circle style="fill: rgb(31, 119, 180);" opacity="1" cy="311.5979381443299" cx="105.88235294117646" r="3.5" class="dot"></circle><circle style="fill: rgb(255, 127, 14);" opacity="1" cy="177.83505154639172" cx="370.5882352941176" r="3.5" class="dot"></circle><circle style="fill: rgb(255, 127, 14);" opacity="1" cy="216.4948453608247" cx="264.70588235294116" r="3.5" class="dot"></circle><circle style="fill: rgb(255, 127, 14);" opacity="1" cy="193.29896907216497" cx="529.4117647058823" r="3.5" class="dot"></circle><circle style="fill: rgb(255, 127, 14);" opacity="1" cy="192.13917525773198" cx="317.64705882352945" r="3.5" class="dot"></circle><circle style="fill: rgb(255, 127, 14);" opacity="1" cy="173.19587628865978" cx="423.52941176470586" r="3.5" class="dot"></circle><circle style="fill: rgb(255, 127, 14);" opacity="1" cy="218.04123711340208" cx="582.3529411764706" r="3.5" class="dot"></circle><circle style="fill: rgb(255, 127, 14);" opacity="1" cy="294.2010309278351" cx="158.82352941176472" r="3.5" class="dot"></circle><circle style="fill: rgb(255, 127, 14);" opacity="1" cy="411.340206185567" cx="52.94117647058823" r="3.5" class="dot"></circle><circle style="fill: rgb(255, 127, 14);" opacity="1" cy="178.22164948453604" cx="476.47058823529414" r="3.5" class="dot"></circle><circle style="fill: rgb(255, 127, 14);" opacity="1" cy="250.51546391752578" cx="211.76470588235293" r="3.5" class="dot"></circle><circle style="fill: rgb(255, 127, 14);" opacity="1" cy="347.93814432989694" cx="105.88235294117646" r="3.5" class="dot"></circle><circle style="fill: rgb(44, 160, 44);" opacity="1" cy="242.78350515463922" cx="370.5882352941176" r="3.5" class="dot"></circle><circle style="fill: rgb(44, 160, 44);" opacity="1" cy="269.458762886598" cx="264.70588235294116" r="3.5" class="dot"></circle><circle style="fill: rgb(44, 160, 44);" opacity="1" cy="38.659793814433" cx="529.4117647058823" r="3.5" class="dot"></circle><circle style="fill: rgb(44, 160, 44);" opacity="1" cy="256.3144329896907" cx="317.64705882352945" r="3.5" class="dot"></circle><circle style="fill: rgb(44, 160, 44);" opacity="1" cy="229.25257731958766" cx="423.52941176470586" r="3.5" class="dot"></circle><circle style="fill: rgb(44, 160, 44);" opacity="1" cy="189.43298969072168" cx="582.3529411764706" r="3.5" class="dot"></circle><circle style="fill: rgb(44, 160, 44);" opacity="1" cy="296.1340206185567" cx="158.82352941176472" r="3.5" class="dot"></circle><circle style="fill: rgb(44, 160, 44);" opacity="1" cy="322.8092783505155" cx="52.94117647058823" r="3.5" class="dot"></circle><circle style="fill: rgb(44, 160, 44);" opacity="1" cy="216.1082474226804" cx="476.47058823529414" r="3.5" class="dot"></circle><circle style="fill: rgb(44, 160, 44);" opacity="1" cy="282.9896907216495" cx="211.76470588235293" r="3.5" class="dot"></circle><circle style="fill: rgb(44, 160, 44);" opacity="1" cy="309.66494845360825" cx="105.88235294117646" r="3.5" class="dot"></circle><circle style="fill: rgb(214, 39, 40);" opacity="1" cy="276.8041237113402" cx="264.70588235294116" r="3.5" class="dot"></circle><circle style="fill: rgb(44, 160, 44);" opacity="1" cy="308.50515463917526" cx="264.70588235294116" r="3.5" class="dot"></circle><circle style="fill: rgb(44, 160, 44);" opacity="1" cy="233.11855670103094" cx="264.70588235294116" r="3.5" class="dot"></circle><circle style="fill: rgb(44, 160, 44);" opacity="1" cy="189.43298969072168" cx="264.70588235294116" r="3.5" class="dot"></circle><circle style="fill: rgb(44, 160, 44);" opacity="1" cy="203.73711340206182" cx="264.70588235294116" r="3.5" class="dot"></circle><circle style="fill: rgb(44, 160, 44);" opacity="1" cy="259.02061855670104" cx="264.70588235294116" r="3.5" class="dot"></circle><circle style="fill: rgb(44, 160, 44);" opacity="1" cy="328.2216494845361" cx="264.70588235294116" r="3.5" class="dot"></circle><circle style="fill: rgb(44, 160, 44);" opacity="1" cy="47.938144329896936" cx="847.0588235294117" r="3.5" class="dot"></circle><circle style="fill: rgb(44, 160, 44);" opacity="1" cy="316.2371134020619" cx="264.70588235294116" r="3.5" class="dot"></circle><circle style="fill: rgb(44, 160, 44);" opacity="1" cy="225.38659793814432" cx="264.70588235294116" r="3.5" class="dot"></circle><circle style="fill: rgb(44, 160, 44);" opacity="1" cy="264.81958762886603" cx="264.70588235294116" r="3.5" class="dot"></circle><g transform="translate(0,0)" class="legend"><rect style="fill: rgb(31, 119, 180);" height="18" width="18" x="882"></rect><text style="text-anchor: end;" dy=".35em" y="9" x="876">1</text></g><g transform="translate(0,20)" class="legend"><rect style="fill: rgb(255, 127, 14);" height="18" width="18" x="882"></rect><text style="text-anchor: end;" dy=".35em" y="9" x="876">2</text></g><g transform="translate(0,40)" class="legend"><rect style="fill: rgb(44, 160, 44);" height="18" width="18" x="882"></rect><text style="text-anchor: end;" dy=".35em" y="9" x="876">3</text></g><g transform="translate(0,60)" class="legend"><rect style="fill: rgb(214, 39, 40);" height="18" width="18" x="882"></rect><text style="text-anchor: end;" dy=".35em" y="9" x="876">4</text></g></g></svg>